<svg width="11" height="21" viewBox="0 0 11 21" fill="none" xmlns="http://www.w3.org/2000/svg">
<path d="M8.5 11.3182V3.31818C8.5 2.52253 8.18393 1.75947 7.62132 1.19686C7.05871 0.634247 6.29565 0.318176 5.5 0.318176C4.70435 0.318176 3.94129 0.634247 3.37868 1.19686C2.81607 1.75947 2.5 2.52253 2.5 3.31818V11.3182C1.66047 11.9478 1.04033 12.8257 0.727432 13.8273C0.414531 14.829 0.42473 15.9038 0.756584 16.8993C1.08844 17.8949 1.72512 18.7608 2.57645 19.3744C3.42778 19.988 4.45059 20.3182 5.5 20.3182C6.54941 20.3182 7.57222 19.988 8.42355 19.3744C9.27488 18.7608 9.91156 17.8949 10.2434 16.8993C10.5753 15.9038 10.5855 14.829 10.2726 13.8273C9.95967 12.8257 9.33953 11.9478 8.5 11.3182ZM5.5 2.31818C5.76522 2.31818 6.01957 2.42353 6.20711 2.61107C6.39464 2.79861 6.5 3.05296 6.5 3.31818V6.31818H4.5V3.31818C4.5 3.05296 4.60536 2.79861 4.79289 2.61107C4.98043 2.42353 5.23478 2.31818 5.5 2.31818Z" fill="#F9F9F9"/>
</svg>
