<svg width="14" height="19" viewBox="0 0 14 19" fill="none" xmlns="http://www.w3.org/2000/svg">
<path d="M9.1875 14.7182C9.55208 14.7182 9.86212 14.5868 10.1176 14.324C10.3731 14.0612 10.5006 13.7426 10.5 13.3682C10.5 12.9932 10.3723 12.6743 10.1168 12.4115C9.86125 12.1487 9.5515 12.0176 9.1875 12.0182C8.82292 12.0182 8.51288 12.1496 8.25738 12.4124C8.00187 12.6752 7.87442 12.9938 7.875 13.3682C7.875 13.7432 8.00275 14.0621 8.25825 14.3249C8.51375 14.5877 8.8235 14.7188 9.1875 14.7182ZM4.76875 14.6732L10.4563 8.82318L9.23125 7.56318L3.54375 13.4132L4.76875 14.6732ZM4.8125 10.2182C5.17708 10.2182 5.48713 10.0868 5.74263 9.82398C5.99813 9.56118 6.12558 9.24258 6.125 8.86818C6.125 8.49318 5.99725 8.17428 5.74175 7.91148C5.48625 7.64868 5.1765 7.51758 4.8125 7.51818C4.44792 7.51818 4.13788 7.64958 3.88238 7.91238C3.62688 8.17518 3.49942 8.49378 3.5 8.86818C3.5 9.24318 3.62775 9.56208 3.88325 9.82488C4.13875 10.0877 4.4485 10.2188 4.8125 10.2182ZM7 18.3182C5.00208 18.3182 3.33579 17.6132 2.00113 16.2032C0.666459 14.7932 -0.000582951 13.0382 3.82263e-07 10.9382C3.82263e-07 9.43818 0.579834 7.80678 1.7395 6.04398C2.89917 4.28118 4.65267 2.37258 7 0.318176C9.34792 2.37318 11.1017 4.28208 12.2614 6.04488C13.421 7.80768 14.0006 9.43878 14 10.9382C14 13.0382 13.3327 14.7932 11.998 16.2032C10.6633 17.6132 8.99733 18.3182 7 18.3182Z" fill="#F9F9F9"/>
</svg>
