<svg width="20" height="14" viewBox="0 0 20 14" fill="none" xmlns="http://www.w3.org/2000/svg">
<path d="M18.5155 7.34091C17.891 6.60551 17.0055 6.1411 16.0455 6.04545C16.0455 4.36136 15.4582 2.93636 14.2836 1.76182C13.1091 0.587273 11.6841 0 10 0C8.63545 0 7.40909 0.405909 6.32955 1.235C5.25 2.06409 4.53318 3.12636 4.17045 4.44773C3.09091 4.68955 2.19273 5.25091 1.51045 6.13182C0.828182 7.01273 0.5 8.01455 0.5 9.13727C0.5 10.4414 0.966364 11.5555 1.89045 12.4623C2.82318 13.3864 3.95455 13.8182 5.25 13.8182H15.6136C16.6932 13.8182 17.6086 13.4382 18.3686 12.6868C19.12 11.9268 19.5 11.0114 19.5 9.93182C19.5 8.93864 19.1718 8.075 18.5155 7.34091ZM7.79773 4.34409C8.47136 4.34409 9.02409 4.89682 9.02409 5.57045C9.02409 6.24409 8.47136 6.79682 7.79773 6.79682C7.12409 6.79682 6.57136 6.24409 6.57136 5.57045C6.57136 4.89682 7.12409 4.34409 7.79773 4.34409ZM12.2023 11.2014C11.5286 11.2014 10.9759 10.6486 10.9759 9.975C10.9759 9.30136 11.5286 8.74864 12.2023 8.74864C12.8759 8.74864 13.4286 9.30136 13.4286 9.975C13.4286 10.6486 12.8759 11.2014 12.2023 11.2014ZM7.58182 11.2273L6.54545 10.1909L12.4182 4.31818L13.4545 5.35455L7.58182 11.2273Z" fill="#F9F9F9"/>
</svg>
